<?xml version="1.0" encoding="utf-8"?>
<!-- Generator: Adobe Illustrator 16.0.0, SVG Export Plug-In . SVG Version: 6.00 Build 0)  -->
<!DOCTYPE svg PUBLIC "-//W3C//DTD SVG 1.1//EN" "http://www.w3.org/Graphics/SVG/1.1/DTD/svg11.dtd">
<svg version="1.1" id="Layer_1" xmlns="http://www.w3.org/2000/svg" xmlns:xlink="http://www.w3.org/1999/xlink" x="0px" y="0px"
	 width="100px" height="100px" viewBox="0 0 100 100" enable-background="new 0 0 100 100" xml:space="preserve">
<path fill="#C0392B" d="M50,2.5C23.765,2.5,2.5,23.769,2.5,50.002C2.5,76.231,23.765,97.5,50,97.5c26.234,0,47.5-21.269,47.5-47.498
	C97.5,23.769,76.234,2.5,50,2.5z M80.765,49.26c-2.268,6.121-6.527,10.785-16.372,17.936c-6.454,4.691-13.763,11.783-14.271,12.782
	c-0.589,1.156-0.027,0.18-2.636-2.744c-1.376-1.542-4.813-4.542-7.633-6.674c-8.356-6.314-9.495-7.228-12.89-10.354
	c-6.256-5.761-8.915-11.549-8.905-19.397c0.004-3.832,0.265-5.307,1.336-7.565c1.821-3.832,4.506-6.678,7.934-8.419
	c2.429-1.237,3.625-1.781,7.682-1.804c4.241-0.027,5.132,0.468,7.628,1.84c3.036,1.668,6.162,5.235,6.81,7.767l0.4,1.565l0.98-2.154
	c5.563-12.175,23.321-11.995,29.5,0.301C82.289,36.24,82.505,44.569,80.765,49.26z"/>
</svg>
