<?xml version="1.0" encoding="utf-8"?>
<!-- Generator: Adobe Illustrator 16.0.0, SVG Export Plug-In . SVG Version: 6.00 Build 0)  -->
<!DOCTYPE svg PUBLIC "-//W3C//DTD SVG 1.1//EN" "http://www.w3.org/Graphics/SVG/1.1/DTD/svg11.dtd">
<svg version="1.1" id="svg2" xmlns:svg="http://www.w3.org/2000/svg"
	 xmlns="http://www.w3.org/2000/svg" xmlns:xlink="http://www.w3.org/1999/xlink" x="0px" y="0px" width="645px" height="585px"
	 viewBox="0 0 645 585" enable-background="new 0 0 645 585" xml:space="preserve">
<g id="layer1">
	<path id="path2417" fill="#C0392B" d="M297.298,550.868c-13.775-15.437-48.171-45.53-76.435-66.875
		c-83.744-63.241-95.142-72.394-129.144-103.702c-62.685-57.721-89.306-115.71-89.215-194.34
		c0.045-38.384,2.661-53.172,13.41-75.798C34.151,71.768,61.015,43.244,95.36,25.799c24.325-12.355,36.322-17.845,76.944-18.069
		c42.493-0.235,51.438,4.72,76.435,18.452c30.425,16.714,61.74,52.436,68.214,77.811l3.998,15.672l9.859-21.584
		c55.716-121.974,233.599-120.148,295.502,3.031c19.638,39.076,21.794,122.513,4.381,169.513
		c-22.716,61.31-65.38,108.051-164.007,179.677c-64.681,46.974-137.885,118.046-142.98,128.027
		C317.791,589.916,323.424,580.145,297.298,550.868z"/>
	<g id="g2221" transform="translate(129.28571,-64.285714)">
	</g>
</g>
</svg>
